# xmcd
#
# Track frame offsets:
# 150
# 13024
# 25939
# 40619
# 57526
# 70869
# 84261
# 95275
# 107985
# 118157
# 130779
# 145223
# 158722
# 174941
#
# Disc length: 2573 seconds
#
#
# Revision: 0
# Processed by: cddbd v1.5.2PL0 Copyright (c) Steve Scherf et al.
# Submitted via: FreeRIP 2.951 
#
DISCID=b20a0b0e
DTITLE=Trio Parada Dura - Pra Furar o Couro
DYEAR=2006
DGENRE=Country
TTITLE0=Alguém viu ela por aí
TTITLE1=Pernilongo da vida
TTITLE2=Bebendo e chorando
TTITLE3=Vida do Avesso
TTITLE4=Brinco de ouro
TTITLE5=Toda noita eu dava uma
TTITLE6=Paixão e mágoa
TTITLE7=Quem não sabe nadar
TTITLE8=O pinto do meu tio
TTITLE9=Não posso acreditar
TTITLE10=Pra furar o couro
TTITLE11=Tiro no pé
TTITLE12=Cicatrizes
TTITLE13=Menino Deus
EXTD=Pirat Corp S/A
EXTT0=
EXTT1=
EXTT2=
EXTT3=
EXTT4=
EXTT5=
EXTT6=
EXTT7=
EXTT8=
EXTT9=
EXTT10=
EXTT11=
EXTT12=
EXTT13=
PLAYORDER=
